<svg width="474" height="434" viewBox="0 0 474 434" fill="none" xmlns="http://www.w3.org/2000/svg">
<rect x="286.952" width="144.571" height="144.571" rx="21" fill="#6E00FF"/>
<rect x="286.952" y="289.143" width="144.571" height="144.571" rx="21" fill="#6E00FF"/>
<path d="M144.571 165.571C144.571 153.973 153.973 144.571 165.571 144.571H268.143C279.741 144.571 289.143 153.973 289.143 165.571V268.143C289.143 279.741 279.741 289.143 268.143 289.143H165.571C153.973 289.143 144.571 279.741 144.571 268.143V165.571Z" fill="white"/>
<path d="M430 166C430 154.402 439.402 145 451 145H453C464.598 145 474 154.402 474 166V268C474 279.598 464.598 289 453 289H451C439.402 289 430 279.598 430 268V166Z" fill="#D615DA" fill-opacity="0.15"/>
<path d="M0 310.143C0 298.545 9.40202 289.143 21 289.143H123.571C135.169 289.143 144.571 298.545 144.571 310.143V412.714C144.571 424.312 135.169 433.714 123.571 433.714H21C9.40203 433.714 0 424.312 0 412.714V310.143Z" fill="#D615DA" fill-opacity="0.15"/>
<circle cx="359.786" cy="215.214" r="70.6429" fill="#FF64CB"/>
<circle cx="215.214" cy="363.072" r="70.6429" fill="#16DAF4"/>
</svg>
