<svg width="575" height="763" viewBox="0 0 575 763" fill="none" xmlns="http://www.w3.org/2000/svg">
<rect x="286.952" width="144.571" height="144.571" rx="21" fill="#6E00FF"/>
<rect x="286.952" y="289.143" width="144.571" height="144.571" rx="21" fill="#6E00FF"/>
<path d="M144.571 165.571C144.571 153.973 153.973 144.571 165.571 144.571H268.143C279.741 144.571 289.143 153.973 289.143 165.571V268.143C289.143 279.741 279.741 289.143 268.143 289.143H165.571C153.973 289.143 144.571 279.741 144.571 268.143V165.571Z" fill="white"/>
<path d="M144.571 454.714C144.571 443.116 153.973 433.714 165.571 433.714H268.143C279.741 433.714 289.143 443.116 289.143 454.714V557.286C289.143 568.884 279.741 578.286 268.143 578.286H165.571C153.973 578.286 144.571 568.884 144.571 557.286V454.714Z" fill="white"/>
<path d="M430.429 165.571C430.429 153.973 439.831 144.571 451.429 144.571H554C565.598 144.571 575 153.973 575 165.571V268.143C575 279.741 565.598 289.143 554 289.143H451.429C439.831 289.143 430.429 279.741 430.429 268.143V165.571Z" fill="#D615DA" fill-opacity="0.15"/>
<path d="M0 310.143C0 298.545 9.40202 289.143 21 289.143H123.571C135.169 289.143 144.571 298.545 144.571 310.143V412.714C144.571 424.312 135.169 433.714 123.571 433.714H21C9.40203 433.714 0 424.312 0 412.714V310.143Z" fill="#D615DA" fill-opacity="0.15"/>
<circle cx="359.786" cy="215.214" r="70.6429" fill="#FF64CB"/>
<circle cx="215.214" cy="363.071" r="70.6429" fill="#16DAF4"/>
</svg>
